<svg xmlns="http://www.w3.org/2000/svg" id="canvas" viewBox="135.552 498.453 628.694 97.905"><path d="M 140.03,553.70 C 140.62 553.43, 141.13 552.57, 141.64 551.83 C 142.15 551.09, 142.21 550.46, 142.59 549.98 C 142.97 549.50, 143.06 549.13, 143.54 549.42 C 144.01 549.71, 144.25 550.01, 144.95 551.43 C 145.65 552.85, 146.10 554.16, 147.05 556.51 C 148.00 558.86, 148.62 560.38, 149.71 563.18 C 150.80 565.98, 151.32 567.81, 152.48 570.53 C 153.65 573.25, 154.21 574.86, 155.55 576.79 C 156.89 578.71, 157.65 579.53, 159.19 580.16 C 160.73 580.78, 161.62 580.77, 163.25 579.89 C 164.89 579.00, 165.81 578.14, 167.35 575.72 C 168.90 573.30, 169.46 571.42, 170.97 567.78 C 172.48 564.15, 173.29 561.74, 174.90 557.54 C 176.52 553.34, 177.37 550.79, 179.04 546.79 C 180.71 542.78, 181.70 540.65, 183.23 537.51 C 184.77 534.38, 185.69 532.91, 186.72 531.12 C 187.75 529.33, 188.01 528.68, 188.39 528.54 C 188.77 528.41, 188.61 528.85, 188.62 530.44 C 188.63 532.04, 188.53 533.38, 188.43 536.53 C 188.32 539.67, 188.32 541.94, 188.09 546.16 C 187.86 550.38, 187.63 553.09, 187.29 557.65 C 186.95 562.20, 186.67 564.89, 186.39 568.93 C 186.11 572.96, 185.68 575.09, 185.90 577.83 C 186.12 580.58, 186.56 581.74, 187.48 582.66 C 188.40 583.59, 189.16 583.53, 190.49 582.46 C 191.82 581.38, 192.70 580.13, 194.14 577.29 C 195.58 574.45, 196.19 572.19, 197.69 568.28 C 199.19 564.37, 200.00 561.94, 201.64 557.76 C 203.28 553.58, 204.19 551.11, 205.88 547.37 C 207.58 543.63, 208.66 541.79, 210.12 539.05 C 211.58 536.31, 212.32 535.05, 213.17 533.65 C 214.03 532.25, 214.17 531.78, 214.38 532.04 C 214.60 532.31, 214.32 532.95, 214.24 534.99 C 214.16 537.03, 214.17 538.68, 213.99 542.24 C 213.80 545.81, 213.70 548.27, 213.33 552.83 C 212.97 557.39, 212.57 560.25, 212.16 565.04 C 211.75 569.83, 211.51 572.59, 211.27 576.78 C 211.04 580.97, 210.73 583.03, 210.99 586.00 C 211.25 588.96, 211.60 590.14, 212.59 591.61 C 213.57 593.08, 214.38 593.42, 215.91 593.35 C 217.44 593.28, 218.46 592.78, 220.24 591.27 C 222.01 589.75, 222.97 588.38, 224.77 585.78 C 226.58 583.18, 227.46 581.31, 229.24 578.28 C 231.02 575.25, 232.06 573.40, 233.67 570.64 C 235.29 567.88, 236.20 566.30, 237.31 564.49 C 238.43 562.69, 238.80 561.97, 239.25 561.60 C 239.70 561.23, 239.63 561.55, 239.57 562.64 C 239.51 563.73, 239.18 564.88, 238.95 567.06 C 238.72 569.25, 238.53 570.87, 238.41 573.57 C 238.30 576.26, 238.23 578.01, 238.38 580.52 C 238.52 583.04, 238.57 584.39, 239.15 586.16 C 239.73 587.93, 240.19 588.72, 241.28 589.38 C 242.37 590.05, 243.34 589.86, 244.62 589.46 C 245.90 589.06, 246.80 588.40, 247.67 587.38 C 248.54 586.35, 248.96 585.13, 248.97 584.34 C 248.98 583.54, 248.44 583.23, 247.72 583.42 C 247.01 583.60, 246.23 584.46, 245.40 585.26 C 244.57 586.06, 244.23 586.83, 243.58 587.40 C 242.94 587.96, 242.55 588.43, 242.16 588.09 C 241.77 587.74, 241.71 587.17, 241.63 585.66 C 241.55 584.15, 241.63 582.90, 241.76 580.52 C 241.89 578.13, 242.16 576.43, 242.29 573.74 C 242.42 571.06, 242.58 569.42, 242.40 567.10 C 242.22 564.78, 242.10 563.49, 241.40 562.16 C 240.69 560.82, 240.13 560.28, 238.89 560.43 C 237.65 560.58, 236.72 561.15, 235.18 562.90 C 233.64 564.64, 232.86 566.38, 231.18 569.15 C 229.50 571.93, 228.60 573.84, 226.78 576.79 C 224.95 579.74, 223.78 581.42, 222.06 583.91 C 220.35 586.40, 219.47 587.67, 218.19 589.25 C 216.91 590.83, 216.49 591.50, 215.66 591.82 C 214.84 592.13, 214.50 592.03, 214.07 590.83 C 213.63 589.63, 213.62 588.61, 213.48 585.82 C 213.34 583.03, 213.23 580.99, 213.37 576.87 C 213.51 572.75, 213.72 569.99, 214.16 565.22 C 214.61 560.46, 215.06 557.61, 215.59 553.05 C 216.12 548.49, 216.57 546.06, 216.82 542.41 C 217.06 538.76, 217.21 537.03, 216.82 534.80 C 216.43 532.57, 215.89 531.74, 214.85 531.26 C 213.82 530.78, 213.05 531.08, 211.66 532.40 C 210.27 533.72, 209.45 535.03, 207.90 537.85 C 206.35 540.67, 205.57 542.68, 203.92 546.50 C 202.26 550.32, 201.35 552.79, 199.63 556.95 C 197.91 561.11, 196.96 563.50, 195.31 567.31 C 193.65 571.11, 192.59 573.17, 191.36 575.97 C 190.12 578.77, 189.72 580.10, 189.13 581.32 C 188.53 582.54, 188.53 582.79, 188.40 582.07 C 188.27 581.36, 188.43 580.35, 188.48 577.75 C 188.52 575.15, 188.43 573.04, 188.63 569.06 C 188.82 565.07, 189.06 562.36, 189.44 557.82 C 189.83 553.28, 190.16 550.59, 190.57 546.35 C 190.98 542.10, 191.46 539.85, 191.49 536.59 C 191.52 533.33, 191.37 531.85, 190.73 530.05 C 190.10 528.24, 189.50 527.64, 188.33 527.59 C 187.16 527.55, 186.31 528.05, 184.86 529.83 C 183.42 531.61, 182.67 533.25, 181.11 536.48 C 179.56 539.71, 178.74 541.93, 177.09 545.98 C 175.43 550.03, 174.55 552.58, 172.85 556.72 C 171.14 560.87, 170.22 563.25, 168.58 566.72 C 166.94 570.20, 165.96 571.80, 164.66 574.10 C 163.36 576.39, 163.02 577.31, 162.09 578.20 C 161.15 579.10, 160.82 579.12, 159.99 578.56 C 159.15 577.99, 158.82 577.22, 157.92 575.37 C 157.02 573.53, 156.49 571.99, 155.47 569.32 C 154.46 566.65, 153.86 564.86, 152.85 562.02 C 151.84 559.17, 151.49 557.55, 150.43 555.09 C 149.36 552.64, 148.76 551.27, 147.53 549.73 C 146.30 548.20, 145.56 547.79, 144.27 547.43 C 142.98 547.07, 142.14 547.36, 141.08 547.94 C 140.01 548.52, 139.44 549.30, 138.96 550.35 C 138.48 551.39, 138.47 552.48, 138.69 553.15 C 138.90 553.82, 139.44 553.96, 140.03 553.70" style="stroke: black; fill: black;"/><path d="M 246.66,544.07 C 246.83 543.61, 246.66 543.10, 246.37 542.89 C 246.08 542.67, 245.59 542.77, 245.21 542.98 C 244.82 543.20, 244.61 543.56, 244.46 543.95 C 244.31 544.35, 244.26 544.71, 244.46 544.95 C 244.67 545.19, 245.06 545.34, 245.50 545.17 C 245.94 544.99, 246.48 544.53, 246.66 544.07" style="stroke: black; fill: black;"/><path d="M 275.13,562.14 C 274.94 561.71, 274.67 561.53, 273.92 561.18 C 273.18 560.83, 272.69 560.44, 271.41 560.38 C 270.12 560.32, 269.12 560.33, 267.49 560.88 C 265.86 561.44, 264.91 561.84, 263.26 563.15 C 261.61 564.46, 260.64 565.32, 259.25 567.43 C 257.85 569.55, 257.07 571.04, 256.29 573.71 C 255.51 576.38, 255.25 578.05, 255.36 580.76 C 255.47 583.48, 255.75 585.11, 256.84 587.30 C 257.93 589.48, 258.83 590.60, 260.80 591.69 C 262.78 592.78, 264.17 593.14, 266.73 592.75 C 269.28 592.36, 270.84 591.69, 273.60 589.74 C 276.36 587.79, 277.81 586.31, 280.53 583.01 C 283.25 579.71, 284.69 577.58, 287.18 573.23 C 289.68 568.88, 290.99 566.19, 293.02 561.26 C 295.05 556.34, 296.00 553.44, 297.33 548.60 C 298.66 543.76, 299.14 541.12, 299.67 537.06 C 300.20 533.01, 300.32 531.09, 299.97 528.34 C 299.63 525.59, 299.02 524.51, 297.95 523.32 C 296.88 522.13, 296.03 521.85, 294.61 522.39 C 293.18 522.92, 292.09 523.65, 290.81 526.00 C 289.53 528.35, 289.06 530.26, 288.23 534.14 C 287.40 538.03, 287.06 540.66, 286.65 545.43 C 286.24 550.19, 286.09 553.23, 286.17 557.99 C 286.24 562.76, 286.38 565.37, 287.00 569.26 C 287.63 573.15, 288.03 574.98, 289.28 577.43 C 290.53 579.89, 291.48 580.69, 293.24 581.53 C 294.99 582.37, 296.06 582.29, 298.06 581.63 C 300.05 580.96, 301.26 580.11, 303.24 578.22 C 305.21 576.32, 306.21 574.69, 307.91 572.14 C 309.61 569.59, 310.56 567.88, 311.72 565.47 C 312.89 563.06, 313.29 561.53, 313.73 560.09 C 314.16 558.65, 313.97 558.20, 313.89 558.28 C 313.80 558.36, 313.48 558.98, 313.30 560.48 C 313.13 561.98, 312.84 563.40, 313.03 565.78 C 313.23 568.17, 313.54 569.90, 314.29 572.41 C 315.03 574.92, 315.54 576.35, 316.76 578.33 C 317.98 580.32, 318.74 581.29, 320.40 582.36 C 322.06 583.42, 323.10 583.73, 325.07 583.67 C 327.04 583.60, 328.21 583.25, 330.26 582.03 C 332.32 580.81, 333.52 579.77, 335.35 577.55 C 337.18 575.33, 338.04 573.70, 339.42 570.95 C 340.80 568.19, 341.49 566.52, 342.23 563.77 C 342.97 561.01, 343.19 559.42, 343.14 557.18 C 343.09 554.94, 342.81 553.77, 341.98 552.56 C 341.14 551.35, 340.28 550.93, 338.96 551.13 C 337.65 551.33, 336.66 551.93, 335.39 553.55 C 334.12 555.16, 333.35 556.53, 332.60 559.20 C 331.85 561.87, 331.66 563.77, 331.65 566.91 C 331.64 570.05, 331.76 572.01, 332.55 574.91 C 333.33 577.80, 334.01 579.36, 335.58 581.39 C 337.16 583.42, 338.16 584.36, 340.42 585.04 C 342.67 585.71, 344.25 585.86, 346.86 584.77 C 349.47 583.67, 350.82 582.35, 353.48 579.56 C 356.15 576.77, 357.56 574.92, 360.18 570.79 C 362.80 566.67, 364.22 564.00, 366.58 558.95 C 368.94 553.90, 370.09 550.86, 371.98 545.53 C 373.88 540.21, 374.71 537.18, 376.04 532.32 C 377.38 527.46, 377.98 524.99, 378.67 521.24 C 379.36 517.49, 379.64 515.84, 379.50 513.57 C 379.35 511.29, 378.87 510.49, 377.92 509.88 C 376.98 509.27, 376.15 509.26, 374.77 510.51 C 373.39 511.76, 372.37 512.91, 371.01 516.11 C 369.65 519.31, 369.05 521.68, 367.99 526.51 C 366.93 531.34, 366.39 534.49, 365.72 540.28 C 365.04 546.06, 364.70 549.56, 364.62 555.45 C 364.53 561.35, 364.60 564.52, 365.30 569.76 C 366.01 574.99, 366.59 577.65, 368.15 581.63 C 369.71 585.61, 370.73 587.34, 373.11 589.65 C 375.49 591.96, 377.05 592.75, 380.05 593.17 C 383.06 593.59, 385.11 592.84, 388.12 591.75 C 391.12 590.65, 392.87 589.41, 395.09 587.71 C 397.31 586.00, 398.55 584.31, 399.22 583.23 C 399.89 582.14, 399.58 581.85, 398.44 582.28 C 397.29 582.71, 395.75 584.00, 393.49 585.38 C 391.22 586.76, 389.76 588.08, 387.12 589.17 C 384.49 590.27, 382.83 591.04, 380.32 590.83 C 377.80 590.63, 376.64 590.13, 374.54 588.16 C 372.44 586.18, 371.34 584.68, 369.81 580.96 C 368.28 577.24, 367.62 574.64, 366.89 569.54 C 366.17 564.44, 366.08 561.29, 366.18 555.48 C 366.29 549.67, 366.64 546.18, 367.41 540.49 C 368.19 534.80, 368.82 531.67, 370.06 527.01 C 371.30 522.35, 372.35 520.24, 373.61 517.20 C 374.86 514.16, 375.58 513.13, 376.33 511.81 C 377.08 510.48, 377.13 510.22, 377.35 510.57 C 377.57 510.93, 377.55 511.51, 377.41 513.57 C 377.28 515.64, 377.26 517.23, 376.66 520.89 C 376.06 524.55, 375.63 527.06, 374.39 531.88 C 373.15 536.70, 372.33 539.73, 370.46 544.99 C 368.59 550.26, 367.42 553.27, 365.04 558.22 C 362.65 563.16, 361.18 565.78, 358.53 569.71 C 355.87 573.64, 354.32 575.35, 351.77 577.88 C 349.23 580.41, 347.94 581.36, 345.80 582.36 C 343.66 583.36, 342.69 583.38, 341.07 582.89 C 339.45 582.39, 338.81 581.62, 337.72 579.88 C 336.62 578.14, 336.15 576.75, 335.61 574.16 C 335.06 571.58, 334.88 569.78, 334.98 566.97 C 335.08 564.16, 335.52 562.49, 336.09 560.11 C 336.67 557.74, 337.19 556.58, 337.86 555.09 C 338.52 553.59, 338.92 552.99, 339.42 552.64 C 339.92 552.30, 340.16 552.47, 340.35 553.36 C 340.54 554.24, 340.61 555.15, 340.37 557.06 C 340.14 558.96, 339.94 560.40, 339.18 562.89 C 338.42 565.38, 337.85 566.99, 336.57 569.50 C 335.28 572.02, 334.33 573.44, 332.75 575.45 C 331.16 577.47, 330.22 578.43, 328.66 579.59 C 327.09 580.76, 326.29 581.13, 324.91 581.29 C 323.53 581.46, 322.87 581.28, 321.76 580.41 C 320.65 579.54, 320.14 578.73, 319.36 576.95 C 318.58 575.17, 318.35 573.83, 317.85 571.50 C 317.36 569.17, 317.29 567.55, 316.89 565.29 C 316.49 563.02, 316.39 561.68, 315.84 560.16 C 315.29 558.65, 314.96 557.93, 314.14 557.69 C 313.33 557.45, 312.86 557.74, 311.77 558.97 C 310.67 560.20, 310.03 561.58, 308.69 563.84 C 307.35 566.11, 306.62 567.84, 305.06 570.28 C 303.51 572.71, 302.48 574.15, 300.90 576.01 C 299.32 577.87, 298.55 578.78, 297.17 579.57 C 295.80 580.36, 295.19 580.59, 294.03 579.96 C 292.87 579.33, 292.36 578.64, 291.38 576.43 C 290.40 574.22, 289.76 572.60, 289.12 568.91 C 288.48 565.22, 288.24 562.62, 288.17 557.96 C 288.11 553.31, 288.27 550.28, 288.80 545.64 C 289.33 541.00, 289.87 538.42, 290.80 534.75 C 291.74 531.07, 292.57 529.48, 293.48 527.28 C 294.39 525.07, 294.70 524.33, 295.35 523.72 C 295.99 523.10, 296.26 523.22, 296.71 524.20 C 297.16 525.17, 297.40 526.06, 297.59 528.58 C 297.79 531.11, 298.08 532.92, 297.68 536.83 C 297.29 540.74, 296.87 543.39, 295.62 548.14 C 294.36 552.89, 293.42 555.77, 291.41 560.60 C 289.40 565.42, 288.07 568.08, 285.55 572.27 C 283.04 576.47, 281.54 578.52, 278.84 581.57 C 276.14 584.62, 274.57 585.81, 272.06 587.53 C 269.55 589.25, 268.29 589.75, 266.27 590.17 C 264.25 590.59, 263.36 590.42, 261.96 589.62 C 260.57 588.82, 260.01 587.96, 259.31 586.18 C 258.61 584.40, 258.44 583.02, 258.47 580.71 C 258.50 578.41, 258.75 576.95, 259.46 574.66 C 260.17 572.36, 260.85 571.03, 262.01 569.23 C 263.16 567.43, 263.94 566.68, 265.24 565.65 C 266.55 564.61, 267.30 564.44, 268.54 564.04 C 269.77 563.65, 270.44 563.75, 271.42 563.67 C 272.40 563.60, 272.75 563.76, 273.44 563.68 C 274.13 563.61, 274.54 563.61, 274.88 563.30 C 275.21 562.99, 275.32 562.56, 275.13 562.14" style="stroke: black; fill: black;"/><path d="M 457.19,527.33 C 456.86 527.86, 456.75 528.27, 456.57 529.95 C 456.38 531.63, 456.30 532.74, 456.26 535.75 C 456.23 538.76, 456.38 540.76, 456.39 544.98 C 456.41 549.21, 456.39 552.01, 456.36 556.87 C 456.33 561.73, 456.28 564.63, 456.24 569.28 C 456.19 573.93, 456.07 576.49, 456.13 580.12 C 456.20 583.76, 456.16 585.48, 456.56 587.44 C 456.97 589.40, 457.51 590.13, 458.15 589.94 C 458.78 589.75, 459.35 588.88, 459.71 586.48 C 460.08 584.08, 459.93 582.05, 459.95 577.95 C 459.98 573.85, 459.78 571.08, 459.84 565.97 C 459.90 560.86, 459.96 557.73, 460.25 552.38 C 460.53 547.03, 460.78 544.10, 461.27 539.24 C 461.76 534.37, 462.10 531.95, 462.72 528.05 C 463.34 524.15, 463.91 522.37, 464.37 519.75 C 464.84 517.13, 464.93 516.04, 465.03 514.97 C 465.12 513.91, 464.97 513.78, 464.85 514.43 C 464.74 515.08, 464.37 516.01, 464.46 518.24 C 464.55 520.46, 464.78 522.30, 465.31 525.55 C 465.83 528.81, 466.30 530.98, 467.09 534.51 C 467.88 538.03, 468.15 540.17, 469.27 543.18 C 470.38 546.20, 471.05 547.76, 472.66 549.58 C 474.27 551.39, 475.32 552.03, 477.33 552.26 C 479.34 552.48, 480.58 552.21, 482.72 550.70 C 484.86 549.19, 486.05 547.74, 488.03 544.70 C 490.01 541.67, 490.89 539.45, 492.64 535.51 C 494.39 531.57, 495.28 528.94, 496.77 525.00 C 498.26 521.06, 499.30 518.68, 500.08 515.80 C 500.86 512.91, 500.80 511.49, 500.67 510.59 C 500.53 509.70, 499.98 509.81, 499.42 511.32 C 498.87 512.83, 498.43 514.44, 497.88 518.13 C 497.32 521.83, 497.04 524.59, 496.65 529.78 C 496.27 534.96, 496.06 538.30, 495.95 544.07 C 495.84 549.84, 495.87 553.09, 496.12 558.61 C 496.37 564.13, 496.51 567.03, 497.20 571.66 C 497.89 576.29, 498.29 578.53, 499.57 581.74 C 500.84 584.96, 501.77 586.21, 503.57 587.73 C 505.37 589.26, 506.44 589.51, 508.56 589.37 C 510.69 589.24, 511.98 588.69, 514.21 587.08 C 516.44 585.47, 517.64 584.03, 519.70 581.33 C 521.76 578.63, 522.75 576.78, 524.52 573.59 C 526.30 570.39, 527.21 568.45, 528.58 565.37 C 529.95 562.29, 530.62 560.70, 531.37 558.19 C 532.11 555.67, 532.27 554.53, 532.32 552.80 C 532.38 551.06, 532.21 550.39, 531.63 549.52 C 531.05 548.65, 530.45 548.44, 529.42 548.46 C 528.39 548.47, 527.64 548.71, 526.47 549.59 C 525.31 550.48, 524.63 551.22, 523.58 552.89 C 522.53 554.56, 522.00 555.73, 521.21 557.96 C 520.42 560.18, 520.05 561.54, 519.63 564.03 C 519.21 566.51, 519.03 567.99, 519.13 570.38 C 519.22 572.77, 519.39 574.10, 520.10 575.99 C 520.80 577.88, 521.36 578.79, 522.65 579.83 C 523.94 580.87, 524.85 581.28, 526.54 581.18 C 528.23 581.08, 529.33 580.62, 531.09 579.32 C 532.86 578.03, 533.79 576.94, 535.35 574.71 C 536.92 572.48, 537.73 570.93, 538.93 568.17 C 540.12 565.42, 540.72 563.65, 541.32 560.93 C 541.93 558.21, 542.08 556.53, 541.95 554.57 C 541.81 552.61, 541.32 551.74, 540.66 551.12 C 539.99 550.50, 539.36 550.64, 538.63 551.49 C 537.91 552.34, 537.35 553.42, 537.04 555.39 C 536.72 557.36, 536.73 558.90, 537.07 561.34 C 537.40 563.78, 537.80 565.30, 538.71 567.57 C 539.63 569.85, 540.21 571.11, 541.64 572.70 C 543.06 574.30, 544.01 574.99, 545.84 575.55 C 547.67 576.11, 548.75 576.07, 550.79 575.51 C 552.82 574.95, 553.98 574.36, 556.03 572.74 C 558.07 571.13, 559.20 569.88, 561.02 567.44 C 562.84 565.00, 563.78 563.21, 565.13 560.55 C 566.48 557.90, 567.13 556.22, 567.78 554.16 C 568.43 552.11, 568.45 551.02, 568.39 550.26 C 568.33 549.50, 567.93 549.48, 567.49 550.37 C 567.05 551.26, 566.50 552.42, 566.20 554.72 C 565.89 557.02, 565.75 559.01, 565.97 561.85 C 566.19 564.69, 566.53 566.50, 567.28 568.93 C 568.03 571.35, 568.50 572.66, 569.72 573.99 C 570.95 575.32, 572.58 575.43, 573.42 575.57 C 574.26 575.71, 574.32 575.26, 573.92 574.69 C 573.52 574.13, 572.12 574.03, 571.43 572.74 C 570.74 571.45, 570.71 570.48, 570.47 568.25 C 570.22 566.02, 570.35 564.28, 570.23 561.59 C 570.11 558.89, 570.11 557.03, 569.88 554.77 C 569.64 552.52, 569.55 551.34, 569.05 550.32 C 568.55 549.30, 568.19 549.14, 567.38 549.67 C 566.57 550.20, 566.03 551.09, 564.99 552.96 C 563.95 554.83, 563.49 556.51, 562.16 559.01 C 560.83 561.51, 559.97 563.21, 558.34 565.48 C 556.71 567.75, 555.69 568.84, 554.01 570.35 C 552.34 571.86, 551.47 572.44, 549.97 573.03 C 548.48 573.63, 547.79 573.73, 546.55 573.32 C 545.30 572.92, 544.70 572.37, 543.76 571.00 C 542.82 569.64, 542.41 568.54, 541.85 566.50 C 541.30 564.47, 541.24 563.03, 540.98 560.84 C 540.72 558.64, 540.71 557.30, 540.55 555.54 C 540.39 553.77, 540.36 552.82, 540.19 552.01 C 540.02 551.21, 539.91 551.04, 539.71 551.52 C 539.51 552.01, 539.52 552.71, 539.20 554.43 C 538.88 556.15, 538.77 557.66, 538.10 560.14 C 537.43 562.61, 536.96 564.30, 535.84 566.82 C 534.73 569.35, 533.85 570.74, 532.52 572.78 C 531.19 574.83, 530.43 575.81, 529.18 577.05 C 527.93 578.28, 527.28 578.73, 526.27 578.97 C 525.25 579.20, 524.82 578.96, 524.11 578.21 C 523.39 577.45, 523.07 576.75, 522.70 575.18 C 522.33 573.61, 522.21 572.45, 522.25 570.34 C 522.29 568.23, 522.45 566.87, 522.90 564.63 C 523.34 562.39, 523.73 561.13, 524.47 559.14 C 525.22 557.15, 525.79 556.17, 526.61 554.67 C 527.42 553.17, 527.90 552.58, 528.54 551.65 C 529.18 550.73, 529.43 550.36, 529.79 550.06 C 530.15 549.75, 530.30 549.62, 530.36 550.12 C 530.42 550.61, 530.42 551.08, 530.09 552.53 C 529.76 553.97, 529.50 554.99, 528.70 557.34 C 527.91 559.70, 527.42 561.30, 526.12 564.29 C 524.82 567.27, 523.94 569.22, 522.20 572.28 C 520.45 575.33, 519.35 577.05, 517.40 579.56 C 515.45 582.07, 514.26 583.27, 512.45 584.84 C 510.64 586.41, 509.86 587.14, 508.34 587.43 C 506.82 587.71, 506.23 587.56, 504.87 586.27 C 503.51 584.98, 502.71 583.94, 501.53 580.97 C 500.34 577.99, 499.69 575.87, 498.93 571.39 C 498.18 566.90, 498.00 563.99, 497.74 558.54 C 497.49 553.08, 497.45 549.83, 497.66 544.12 C 497.86 538.41, 498.21 535.10, 498.77 529.97 C 499.34 524.85, 500.03 522.18, 500.49 518.50 C 500.96 514.81, 501.24 513.19, 501.10 511.54 C 500.97 509.90, 500.55 509.59, 499.82 510.27 C 499.08 510.95, 498.50 512.16, 497.44 514.94 C 496.39 517.73, 495.95 520.27, 494.56 524.19 C 493.17 528.11, 492.23 530.73, 490.48 534.53 C 488.72 538.34, 487.65 540.40, 485.78 543.22 C 483.91 546.04, 482.78 547.20, 481.12 548.63 C 479.47 550.06, 478.84 550.48, 477.52 550.37 C 476.20 550.26, 475.64 549.72, 474.52 548.10 C 473.41 546.48, 472.85 545.09, 471.93 542.25 C 471.01 539.42, 470.55 537.37, 469.90 533.92 C 469.25 530.48, 469.16 528.27, 468.69 525.03 C 468.22 521.80, 468.14 519.98, 467.56 517.77 C 466.98 515.55, 466.56 514.63, 465.79 513.96 C 465.02 513.29, 464.50 513.37, 463.71 514.43 C 462.93 515.49, 462.48 516.58, 461.89 519.25 C 461.29 521.92, 461.21 523.81, 460.74 527.78 C 460.27 531.74, 459.97 534.17, 459.52 539.07 C 459.07 543.97, 458.84 546.91, 458.49 552.28 C 458.15 557.65, 458.03 560.79, 457.81 565.91 C 457.59 571.04, 457.52 573.81, 457.38 577.90 C 457.25 581.98, 457.01 583.97, 457.11 586.34 C 457.22 588.71, 457.65 589.55, 457.93 589.74 C 458.21 589.93, 458.43 589.22, 458.53 587.29 C 458.63 585.35, 458.49 583.68, 458.43 580.08 C 458.37 576.49, 458.24 573.93, 458.23 569.29 C 458.23 564.65, 458.29 561.75, 458.41 556.90 C 458.53 552.05, 458.63 549.26, 458.85 545.04 C 459.06 540.82, 459.43 538.81, 459.46 535.79 C 459.50 532.76, 459.26 531.60, 459.02 529.90 C 458.77 528.21, 458.60 527.81, 458.23 527.30 C 457.87 526.78, 457.52 526.80, 457.19 527.33" style="stroke: black; fill: black;"/><path d="M 573.87,517.34 C 574.02 516.91, 574.04 516.50, 573.86 516.36 C 573.68 516.22, 573.31 516.29, 572.96 516.62 C 572.61 516.95, 572.25 517.54, 572.10 518.00 C 571.96 518.46, 572.04 518.80, 572.24 518.90 C 572.44 519.00, 572.78 518.82, 573.10 518.50 C 573.43 518.19, 573.72 517.77, 573.87 517.34" style="stroke: black; fill: black;"/><path d="M 587.54,510.16 C 587.21 510.59, 587.13 510.85, 586.91 512.32 C 586.69 513.79, 586.49 514.70, 586.44 517.49 C 586.39 520.28, 586.68 522.17, 586.66 526.28 C 586.63 530.40, 586.51 532.93, 586.32 538.06 C 586.12 543.19, 585.91 546.51, 585.70 551.92 C 585.48 557.33, 585.35 560.38, 585.25 565.10 C 585.16 569.82, 584.87 572.26, 585.22 575.53 C 585.57 578.80, 585.92 580.24, 587.00 581.47 C 588.09 582.69, 589.10 582.75, 590.65 581.66 C 592.19 580.58, 593.09 579.25, 594.73 576.03 C 596.37 572.82, 597.15 570.34, 598.84 565.59 C 600.54 560.83, 601.55 557.79, 603.21 552.26 C 604.88 546.73, 605.75 543.47, 607.18 537.93 C 608.60 532.38, 609.28 529.31, 610.33 524.54 C 611.38 519.76, 612.08 517.23, 612.41 514.04 C 612.74 510.86, 612.48 509.53, 611.98 508.61 C 611.49 507.69, 610.72 507.92, 609.95 509.43 C 609.17 510.94, 608.69 512.55, 608.09 516.17 C 607.49 519.79, 607.26 522.56, 606.96 527.54 C 606.67 532.52, 606.62 535.70, 606.62 541.07 C 606.62 546.44, 606.64 549.43, 606.97 554.39 C 607.31 559.34, 607.52 561.91, 608.31 565.85 C 609.10 569.80, 609.57 571.59, 610.93 574.11 C 612.29 576.63, 613.18 577.65, 615.11 578.44 C 617.04 579.24, 618.32 579.14, 620.59 578.09 C 622.87 577.04, 624.23 575.69, 626.48 573.17 C 628.73 570.65, 629.76 568.72, 631.83 565.48 C 633.90 562.24, 634.99 560.19, 636.83 556.97 C 638.67 553.75, 639.74 552.03, 641.03 549.38 C 642.33 546.72, 642.79 545.46, 643.29 543.71 C 643.80 541.95, 643.80 541.32, 643.54 540.62 C 643.27 539.91, 642.80 539.86, 641.97 540.18 C 641.14 540.50, 640.39 540.95, 639.39 542.21 C 638.39 543.47, 637.79 544.51, 636.96 546.49 C 636.14 548.46, 635.80 549.84, 635.27 552.09 C 634.74 554.34, 634.49 555.63, 634.31 557.73 C 634.12 559.83, 634.09 560.91, 634.35 562.57 C 634.61 564.23, 634.86 565.04, 635.60 566.02 C 636.34 567.01, 636.96 567.41, 638.05 567.50 C 639.15 567.60, 639.88 567.35, 641.08 566.49 C 642.29 565.64, 642.99 564.93, 644.08 563.25 C 645.17 561.57, 645.72 560.32, 646.54 558.10 C 647.36 555.87, 647.72 554.43, 648.18 552.12 C 648.65 549.81, 648.92 548.44, 648.87 546.54 C 648.82 544.63, 648.50 543.58, 647.93 542.58 C 647.36 541.58, 646.72 541.30, 646.01 541.54 C 645.30 541.78, 644.78 542.37, 644.38 543.78 C 643.98 545.18, 643.84 546.37, 644.02 548.54 C 644.20 550.72, 644.49 552.22, 645.30 554.64 C 646.10 557.07, 646.75 558.61, 648.04 560.65 C 649.34 562.70, 650.15 563.69, 651.79 564.86 C 653.42 566.02, 654.39 566.38, 656.21 566.46 C 658.03 566.55, 659.09 566.27, 660.89 565.28 C 662.68 564.29, 663.62 563.40, 665.19 561.49 C 666.75 559.58, 667.56 558.11, 668.72 555.72 C 669.89 553.33, 670.41 551.66, 671.00 549.55 C 671.59 547.43, 671.68 546.18, 671.68 545.14 C 671.67 544.10, 671.34 543.88, 670.96 544.37 C 670.59 544.85, 670.09 545.73, 669.79 547.57 C 669.50 549.41, 669.33 551.07, 669.48 553.54 C 669.63 556.02, 669.93 557.73, 670.54 559.97 C 671.15 562.21, 671.53 563.38, 672.53 564.75 C 673.52 566.12, 674.21 566.67, 675.52 566.83 C 676.84 566.99, 677.74 566.72, 679.12 565.55 C 680.51 564.39, 681.28 563.22, 682.47 561.01 C 683.65 558.79, 684.19 557.15, 685.05 554.49 C 685.91 551.83, 686.26 550.21, 686.77 547.70 C 687.28 545.18, 687.44 543.65, 687.60 541.93 C 687.76 540.20, 687.63 539.56, 687.56 539.06 C 687.48 538.56, 687.28 538.73, 687.23 539.43 C 687.19 540.13, 686.98 540.95, 687.33 542.56 C 687.68 544.17, 687.98 545.52, 688.96 547.49 C 689.95 549.46, 690.73 550.71, 692.26 552.43 C 693.79 554.15, 694.74 555.00, 696.61 556.09 C 698.47 557.19, 699.54 557.58, 701.59 557.91 C 703.64 558.25, 704.84 558.19, 706.86 557.76 C 708.88 557.32, 710.02 556.83, 711.71 555.74 C 713.39 554.64, 714.23 553.78, 715.27 552.28 C 716.31 550.79, 716.74 549.79, 716.91 548.25 C 717.08 546.71, 716.93 545.71, 716.12 544.60 C 715.31 543.50, 714.41 542.91, 712.86 542.72 C 711.30 542.52, 710.13 542.73, 708.36 543.63 C 706.60 544.54, 705.54 545.38, 704.04 547.24 C 702.53 549.09, 701.71 550.48, 700.86 552.92 C 700.01 555.36, 699.73 557.00, 699.79 559.45 C 699.84 561.91, 700.14 563.34, 701.14 565.19 C 702.13 567.04, 703.01 567.95, 704.77 568.71 C 706.52 569.46, 707.77 569.55, 709.91 568.98 C 712.06 568.41, 713.36 567.86, 715.49 565.87 C 717.61 563.89, 718.59 562.29, 720.54 559.05 C 722.49 555.80, 723.53 553.83, 725.22 549.64 C 726.91 545.46, 727.78 542.91, 728.99 538.11 C 730.20 533.32, 730.64 530.46, 731.26 525.68 C 731.88 520.90, 732.01 518.27, 732.09 514.22 C 732.17 510.16, 732.19 507.93, 731.67 505.40 C 731.14 502.87, 730.40 501.93, 729.45 501.57 C 728.50 501.20, 727.71 501.67, 726.94 503.57 C 726.17 505.47, 725.86 507.27, 725.60 511.09 C 725.33 514.91, 725.40 517.65, 725.61 522.67 C 725.83 527.69, 726.07 530.78, 726.68 536.20 C 727.30 541.62, 727.67 544.63, 728.69 549.77 C 729.71 554.91, 730.25 557.62, 731.79 561.89 C 733.34 566.16, 734.20 568.12, 736.41 571.11 C 738.62 574.10, 740.04 575.44, 742.84 576.85 C 745.65 578.26, 747.64 578.24, 750.43 578.16 C 753.23 578.09, 754.74 577.37, 756.82 576.48 C 758.91 575.59, 760.15 574.47, 760.85 573.71 C 761.55 572.95, 761.29 572.59, 760.32 572.69 C 759.36 572.78, 758.00 573.62, 756.00 574.18 C 754.01 574.75, 752.77 575.39, 750.34 575.50 C 747.91 575.61, 746.33 575.85, 743.86 574.73 C 741.40 573.61, 740.09 572.59, 738.01 569.90 C 735.93 567.21, 735.00 565.36, 733.47 561.27 C 731.94 557.18, 731.35 554.49, 730.35 549.44 C 729.34 544.39, 728.96 541.38, 728.44 536.01 C 727.92 530.65, 727.78 527.56, 727.74 522.61 C 727.70 517.66, 728.01 514.98, 728.25 511.27 C 728.50 507.57, 728.80 505.91, 728.96 504.08 C 729.13 502.25, 729.00 501.79, 729.07 502.12 C 729.14 502.45, 729.14 503.32, 729.32 505.74 C 729.50 508.15, 729.95 510.26, 729.97 514.20 C 729.98 518.14, 729.96 520.76, 729.40 525.45 C 728.83 530.14, 728.38 532.97, 727.16 537.64 C 725.93 542.32, 725.02 544.82, 723.27 548.82 C 721.52 552.83, 720.37 554.73, 718.39 557.69 C 716.41 560.65, 715.22 561.87, 713.37 563.64 C 711.52 565.40, 710.68 565.93, 709.14 566.53 C 707.59 567.13, 706.79 567.12, 705.66 566.63 C 704.53 566.14, 704.03 565.52, 703.47 564.09 C 702.91 562.66, 702.77 561.50, 702.88 559.49 C 702.98 557.48, 703.25 556.09, 704.01 554.05 C 704.77 552.02, 705.50 550.87, 706.68 549.32 C 707.86 547.78, 708.71 547.14, 709.92 546.32 C 711.14 545.49, 711.86 545.30, 712.77 545.19 C 713.67 545.09, 714.09 545.28, 714.43 545.80 C 714.76 546.32, 714.73 546.83, 714.44 547.79 C 714.14 548.74, 713.81 549.48, 712.94 550.57 C 712.08 551.67, 711.43 552.38, 710.09 553.25 C 708.75 554.13, 707.84 554.56, 706.22 554.95 C 704.61 555.34, 703.64 555.46, 702.02 555.21 C 700.40 554.95, 699.55 554.65, 698.12 553.68 C 696.68 552.71, 695.97 551.94, 694.84 550.35 C 693.72 548.77, 693.35 547.56, 692.49 545.76 C 691.62 543.96, 691.30 542.79, 690.52 541.37 C 689.73 539.95, 689.35 539.25, 688.56 538.67 C 687.78 538.08, 687.33 537.91, 686.59 538.44 C 685.86 538.97, 685.52 539.62, 684.90 541.31 C 684.28 543.01, 684.15 544.51, 683.49 546.92 C 682.83 549.33, 682.45 550.84, 681.60 553.35 C 680.75 555.85, 680.11 557.36, 679.23 559.46 C 678.36 561.55, 677.92 562.66, 677.21 563.83 C 676.50 564.99, 676.21 565.32, 675.69 565.28 C 675.17 565.25, 674.95 564.85, 674.62 563.66 C 674.28 562.47, 674.19 561.42, 674.01 559.34 C 673.84 557.25, 673.92 555.61, 673.73 553.24 C 673.54 550.88, 673.41 549.33, 673.05 547.52 C 672.69 545.70, 672.54 544.79, 671.94 544.17 C 671.34 543.55, 670.89 543.59, 670.06 544.43 C 669.23 545.27, 668.69 546.41, 667.78 548.36 C 666.88 550.32, 666.56 551.96, 665.52 554.20 C 664.49 556.43, 663.81 557.77, 662.60 559.53 C 661.38 561.29, 660.72 562.08, 659.46 563.01 C 658.20 563.94, 657.51 564.22, 656.29 564.19 C 655.08 564.16, 654.46 563.90, 653.37 562.88 C 652.29 561.85, 651.75 560.94, 650.85 559.08 C 649.95 557.21, 649.49 555.76, 648.88 553.55 C 648.27 551.35, 648.15 549.98, 647.80 548.05 C 647.45 546.12, 647.39 545.11, 647.12 543.92 C 646.86 542.72, 646.68 542.27, 646.47 542.09 C 646.26 541.91, 646.20 542.16, 646.07 543.02 C 645.94 543.88, 646.07 544.70, 645.83 546.37 C 645.59 548.04, 645.39 549.27, 644.86 551.36 C 644.32 553.46, 643.91 554.82, 643.15 556.84 C 642.40 558.87, 641.86 559.96, 641.07 561.49 C 640.28 563.03, 639.82 563.65, 639.21 564.52 C 638.61 565.38, 638.41 565.71, 638.04 565.82 C 637.67 565.92, 637.57 565.73, 637.37 565.04 C 637.17 564.34, 637.04 563.73, 637.05 562.34 C 637.05 560.96, 637.08 559.99, 637.41 558.13 C 637.73 556.26, 638.02 555.05, 638.66 553.01 C 639.30 550.98, 639.87 549.80, 640.60 547.97 C 641.32 546.14, 641.81 545.23, 642.30 543.86 C 642.79 542.50, 642.98 541.82, 643.04 541.15 C 643.11 540.48, 643.00 540.18, 642.62 540.51 C 642.24 540.85, 641.96 541.31, 641.13 542.83 C 640.31 544.35, 639.80 545.54, 638.50 548.12 C 637.20 550.70, 636.41 552.54, 634.63 555.73 C 632.86 558.91, 631.70 560.94, 629.64 564.06 C 627.58 567.17, 626.37 568.91, 624.34 571.29 C 622.30 573.68, 621.16 574.87, 619.45 575.98 C 617.74 577.09, 617.09 577.42, 615.80 576.84 C 614.51 576.25, 614.09 575.33, 612.98 573.05 C 611.87 570.77, 611.10 569.20, 610.25 565.44 C 609.41 561.68, 609.11 559.13, 608.75 554.26 C 608.39 549.39, 608.36 546.40, 608.45 541.09 C 608.54 535.78, 608.73 532.62, 609.19 527.71 C 609.65 522.81, 610.29 520.13, 610.76 516.57 C 611.23 513.00, 611.47 511.45, 611.55 509.88 C 611.63 508.31, 611.43 507.94, 611.16 508.72 C 610.88 509.49, 610.69 510.65, 610.18 513.74 C 609.67 516.84, 609.51 519.42, 608.60 524.18 C 607.69 528.94, 607.03 532.02, 605.62 537.53 C 604.22 543.04, 603.33 546.29, 601.58 551.75 C 599.83 557.21, 598.71 560.22, 596.88 564.85 C 595.04 569.48, 593.89 571.78, 592.42 574.90 C 590.94 578.02, 590.37 579.27, 589.50 580.44 C 588.64 581.61, 588.48 581.77, 588.08 580.75 C 587.67 579.73, 587.66 578.47, 587.47 575.34 C 587.28 572.21, 587.13 569.79, 587.13 565.12 C 587.13 560.45, 587.24 557.38, 587.47 551.99 C 587.70 546.60, 587.93 543.28, 588.26 538.16 C 588.59 533.04, 588.80 530.51, 589.12 526.39 C 589.43 522.26, 589.82 520.36, 589.85 517.54 C 589.89 514.72, 589.54 513.77, 589.28 512.29 C 589.02 510.80, 588.89 510.56, 588.54 510.13 C 588.19 509.70, 587.86 509.72, 587.54 510.16" style="stroke: black; fill: black;"/></svg>