
<svg xmlns="http://www.w3.org/2000/svg" viewBox="0 0 172.08 114.66">
<title>Favicon</title>
  <style>
    .favicon { fill: #000 }
    @media (prefers-color-scheme: dark) {
      .favicon { fill: #fff }
    }
  </style>
  <path class="favicon" d="M140.4,0c7.2,0,12.9,1.14,17.1,3.42,4.2,2.28,7.32,5.43,9.36,9.45,2.04,4.02,3.39,8.67,4.05,13.95.66,5.28,1.05,10.92,1.17,16.92v70.74l-50.22.18V47.88c0-.36-.21-1.26-.63-2.7-.42-1.44-1.83-2.16-4.23-2.16s-3.81.72-4.23,2.16c-.42,1.44-.63,2.34-.63,2.7v66.6l-47.88.18V47.88c0-.36-.21-1.26-.63-2.7-.42-1.44-1.83-2.16-4.23-2.16s-3.81.72-4.23,2.16c-.42,1.44-.63,2.34-.63,2.7v66.6H1.26V42.12c0-3.84.03-9.42.09-16.74.06-7.32-.39-14.82-1.35-22.5h45.72c1.44,7.56,2.16,15.36,2.16,23.4h1.62c0-4.68.93-9,2.79-12.96,1.86-3.96,4.89-7.17,9.09-9.63,4.2-2.46,9.78-3.69,16.74-3.69,7.8,0,13.86,1.11,18.18,3.33,4.32,2.22,7.47,5.31,9.45,9.27,1.98,3.96,3.21,8.52,3.69,13.68h1.62c0-4.68.93-9,2.79-12.96,1.86-3.96,4.95-7.17,9.27-9.63,4.32-2.46,10.08-3.69,17.28-3.69Z"/>
</svg>