

<svg xmlns="http://www.w3.org/2000/svg" viewBox="0 0 173.6 106.2">
  <style>
    .favicon { fill: #000 }
    @media (prefers-color-scheme: dark) {
      .favicon { fill: #fff }
    }
  </style>
  <path class="favicon" d="M163.7 98.9q2.897 3.103 9.9 3.1v4.2q-20.002-.797-26.4-.8-5.601 0-24.8.8V102q5.4 0 7.5-3 2.1-3 2.1-11.4V25.4q0-8.4-2.5-12.5-2.503-4.097-9.5-4.1-7.401 0-12.9 6.2a26.71 26.71 0 0 0-6.5 15.2v57.4q0 8.203 2.5 11.3 2.498 3.103 9.1 3.1v4.2q-19.2-.797-25.2-.8-5.602 0-24.8.8V102q5.4 0 7.5-3.1 2.1-3.098 2.1-11.3V25.4q0-8.4-2.2-12.5-2.203-4.097-8.6-4.1-8.001 0-13.7 6.7A24.594 24.594 0 0 0 41.6 32v55.6q0 8.203 2.1 11.3 2.1 3.103 7.5 3.1v4.2q-17.601-.797-23.6-.8-6 0-27.6.8V102q7.2 0 10-3.1 2.799-3.098 2.8-11.3v-63q0-9.197-2.8-13.4Q7.197 7 0 7V2.8q6.398.6 12.4.6 17.798 0 29.2-2.8v18Q50.4 0 72.6 0q15.197 0 22 7.8 3.797 4.003 5 12Q104.8 9 113.2 4.5A40.89 40.89 0 0 1 132.8 0q15.197 0 22 7.8a21.705 21.705 0 0 1 4.6 9.8 76.178 76.178 0 0 1 1.4 16.2v53.8q0 8.203 2.9 11.3Z"/>
</svg>