<?xml version="1.0" standalone="no"?>
<!DOCTYPE svg PUBLIC "-//W3C//DTD SVG 20010904//EN"
 "http://www.w3.org/TR/2001/REC-SVG-20010904/DTD/svg10.dtd">
<svg version="1.0" xmlns="http://www.w3.org/2000/svg"
 width="1392.000000pt" height="1392.000000pt" viewBox="0 0 1392.000000 1392.000000"
 preserveAspectRatio="xMidYMid meet">
<metadata>
Created by potrace 1.14, written by Peter Selinger 2001-2017
</metadata>
<g transform="translate(0.000000,1392.000000) scale(0.100000,-0.100000)"
fill="#000000" stroke="none">
<path d="M5567 11204 c-2 -2 -32 -6 -68 -9 -83 -6 -158 -14 -189 -20 -14 -2
-43 -7 -65 -10 -23 -3 -52 -8 -65 -11 -35 -7 -61 -12 -90 -18 -42 -7 -150 -36
-240 -64 -47 -14 -87 -26 -90 -27 -36 -5 -335 -140 -358 -162 -7 -7 -18 -13
-23 -13 -6 0 -33 -15 -62 -33 -29 -18 -60 -36 -69 -40 -10 -3 -18 -11 -18 -17
0 -5 -6 -10 -12 -10 -7 0 -24 -9 -38 -20 -14 -11 -52 -41 -85 -66 -32 -25 -78
-62 -101 -82 -23 -20 -50 -44 -60 -53 -73 -62 -284 -307 -340 -394 -10 -16
-22 -34 -27 -40 -15 -19 -77 -117 -77 -122 0 -3 -8 -17 -19 -31 -10 -15 -39
-67 -65 -117 -25 -49 -50 -96 -54 -103 -5 -7 -8 309 -8 703 1 470 -2 715 -9
715 -5 0 -35 -7 -65 -15 -30 -8 -68 -17 -85 -20 -16 -3 -64 -12 -105 -20 -108
-22 -120 -24 -160 -30 -20 -3 -45 -7 -55 -9 -11 -2 -40 -7 -65 -11 -25 -3 -57
-8 -71 -11 -15 -2 -47 -6 -70 -9 -63 -8 -119 -15 -159 -20 -19 -3 -62 -8 -95
-11 -33 -3 -78 -8 -100 -10 -22 -2 -67 -6 -100 -9 -33 -2 -82 -7 -110 -9 -27
-3 -102 -8 -165 -11 -63 -3 -144 -8 -180 -10 -218 -15 -980 -22 -1000 -10 -5
3 -10 1 -10 -5 0 -6 -5 -8 -12 -4 -6 4 -45 8 -87 10 -42 1 -111 4 -154 5 -43
2 -80 6 -83 10 -3 5 -15 4 -28 -1 -13 -5 -26 -7 -28 -5 -4 4 -63 9 -218 20
-47 3 -93 8 -102 11 -17 5 -18 -7 -18 -165 l0 -171 28 -1 c83 -3 150 -7 177
-12 17 -3 50 -9 74 -12 23 -3 54 -10 67 -15 13 -5 24 -8 24 -6 0 5 111 -36
160 -58 41 -19 69 -36 88 -53 7 -7 17 -13 21 -13 29 0 214 -223 212 -257 0 -4
7 -18 15 -30 26 -41 83 -216 103 -318 30 -155 37 -213 48 -375 9 -129 8 -5430
0 -5550 -4 -52 -9 -106 -12 -120 -2 -14 -7 -41 -9 -60 -8 -50 -15 -89 -28
-135 -5 -22 -11 -47 -13 -55 -2 -8 -9 -28 -16 -45 -6 -16 -13 -36 -15 -43 -10
-50 -77 -155 -139 -218 -118 -119 -249 -178 -491 -219 -39 -6 -170 -16 -241
-18 l-53 -1 0 -168 0 -167 153 5 c341 10 376 12 388 20 7 4 10 3 6 -2 -3 -5
11 -8 31 -6 55 4 203 10 427 17 110 3 261 8 335 10 74 3 238 7 364 10 126 3
231 7 233 9 2 2 20 0 39 -4 18 -4 34 -5 34 -1 0 8 413 6 427 -2 7 -4 15 -3 18
3 4 6 14 9 23 6 10 -3 109 -8 222 -11 303 -10 387 -13 580 -21 96 -4 217 -7
267 -8 51 -1 93 -3 93 -6 0 -3 39 -5 88 -6 48 0 151 -4 230 -8 78 -3 142 -3
143 1 1 12 1 296 0 315 -1 13 -8 17 -23 14 -13 -2 -31 1 -40 6 -12 5 -18 5
-18 -1 0 -6 -6 -8 -12 -6 -7 2 -30 7 -50 10 -90 13 -114 18 -168 35 -148 47
-265 146 -326 273 -20 42 -36 82 -38 89 -1 7 -4 18 -7 23 -4 6 -10 24 -14 40
-5 17 -9 35 -11 40 -17 62 -43 248 -51 375 -10 142 -10 4909 0 4985 8 68 16
117 34 215 7 43 34 144 41 155 4 5 8 19 9 30 2 11 18 56 35 100 18 44 33 82
33 85 1 7 83 171 98 195 58 94 142 218 177 260 39 47 242 247 279 275 73 54
220 141 291 171 41 17 84 35 95 41 11 5 30 10 43 11 12 0 22 4 22 8 0 3 17 9
38 12 50 8 94 17 109 22 24 8 161 19 248 18 124 0 211 -11 298 -37 26 -8 47
-12 47 -10 0 2 37 -15 83 -38 153 -77 255 -204 322 -403 30 -90 87 -353 79
-366 -3 -5 -2 -14 2 -20 8 -13 10 -36 18 -207 3 -63 8 -118 11 -122 3 -5 1
-11 -5 -15 -6 -4 -7 -12 -3 -18 10 -17 10 -777 -1 -777 -5 0 -4 -6 1 -12 5 -7
7 -114 6 -238 -2 -124 -3 -229 -3 -235 6 -550 3 -1423 -3 -1432 -5 -7 -6 -13
-1 -13 11 0 11 -451 0 -468 -4 -6 -4 -12 1 -12 4 0 8 -322 8 -715 0 -400 -4
-715 -9 -715 -5 0 -4 -6 1 -12 5 -7 7 -114 6 -238 -3 -273 -3 -244 -2 -310 1
-66 -16 -335 -21 -335 -1 0 -4 -18 -6 -39 -10 -118 -77 -333 -129 -416 -24
-38 -109 -127 -140 -148 -27 -17 -126 -64 -139 -66 -6 -1 -15 -4 -21 -8 -5 -3
-27 -9 -49 -12 -21 -4 -41 -8 -45 -10 -3 -2 -33 -7 -66 -11 -33 -3 -62 -8 -64
-10 -2 -3 -12 0 -22 6 -13 7 -19 6 -19 -1 0 -6 -4 -9 -9 -6 -5 4 -16 4 -23 1
-12 -5 -14 -37 -14 -168 l1 -162 100 1 c198 3 395 13 406 20 8 5 9 3 4 -6 -6
-9 -4 -11 4 -5 13 7 77 11 371 20 91 2 233 7 315 10 83 3 224 7 315 10 91 3
177 6 193 8 15 3 27 0 27 -5 0 -5 5 -6 12 -2 19 12 402 11 410 -1 5 -6 8 -6 8
0 0 6 19 9 42 8 24 -1 149 -5 278 -8 235 -6 267 -7 605 -20 99 -4 230 -8 292
-10 61 -1 116 -6 122 -9 6 -4 11 -2 11 4 0 6 5 8 11 4 6 -3 54 -8 107 -10 54
-1 159 -5 235 -8 l137 -6 -2 168 -3 167 -45 2 c-71 2 -183 12 -210 18 -14 3
-41 7 -61 10 -20 3 -55 11 -78 20 -23 8 -45 15 -49 16 -27 6 -77 29 -147 68
-47 27 -155 130 -155 148 0 7 -4 13 -9 13 -5 0 -14 15 -22 33 -7 17 -16 34
-19 37 -7 6 -58 145 -64 175 -3 11 -9 41 -15 68 -6 26 -14 64 -17 83 -3 20 -7
46 -10 58 -16 86 -19 439 -18 2621 0 2112 3 2540 14 2540 1 0 3 9 5 20 1 11 6
34 9 50 4 17 9 44 12 60 13 79 120 388 155 445 5 8 16 30 24 49 25 56 138 241
147 241 4 0 8 4 8 10 0 12 69 104 81 108 5 2 9 8 9 14 0 14 130 151 216 228
71 63 189 146 254 179 25 12 52 26 60 31 35 21 180 73 235 85 137 30 201 38
315 38 244 0 408 -36 555 -122 68 -39 173 -139 201 -191 10 -19 22 -37 25 -40
5 -5 53 -100 55 -110 0 -3 4 -14 8 -25 17 -43 19 -50 21 -55 7 -22 28 -97 29
-105 1 -5 6 -21 11 -35 4 -14 9 -34 10 -45 1 -11 5 -36 8 -55 17 -93 22 -135
34 -270 10 -123 10 -5435 0 -5560 -11 -130 -14 -160 -20 -195 -3 -16 -9 -50
-12 -75 -4 -24 -9 -48 -11 -52 -5 -7 -8 -21 -20 -75 -2 -12 -13 -42 -24 -67
-11 -26 -20 -50 -21 -54 -4 -19 -14 -38 -26 -50 -7 -7 -13 -19 -13 -25 0 -11
-86 -105 -122 -134 -18 -13 -101 -56 -108 -55 -3 0 -10 -4 -17 -9 -29 -25
-200 -58 -325 -63 -15 -1 -30 -5 -34 -9 -11 -10 -11 -197 0 -197 5 0 4 -6 -1
-13 -5 -6 -9 -34 -8 -62 l1 -50 89 1 c181 2 362 11 373 18 6 3 13 2 17 -3 3
-6 15 -7 28 -2 12 5 31 5 42 1 11 -4 24 -5 29 -2 6 3 46 7 90 9 533 19 767 26
928 27 87 0 158 3 158 6 0 8 79 5 86 -3 4 -3 14 -3 23 2 20 10 561 2 1001 -14
69 -3 208 -7 310 -11 102 -3 230 -8 285 -10 55 -2 159 -5 230 -8 72 -3 194 -7
273 -11 l142 -5 -2 167 -3 168 -50 2 c-256 9 -435 49 -584 130 -36 20 -70 41
-77 47 -6 7 -25 23 -40 37 -34 28 -104 112 -104 124 0 5 -6 16 -14 24 -14 15
-64 129 -72 160 -2 9 -10 41 -18 71 -9 30 -20 81 -26 112 -10 54 -14 83 -26
188 -3 25 -7 1150 -9 2500 -1 1350 -6 2496 -10 2545 -3 50 -8 115 -10 145 -6
87 -14 168 -25 255 -6 44 -13 100 -17 125 -3 25 -10 53 -15 63 -5 11 -5 17 1
17 7 0 7 9 1 25 -5 14 -12 40 -14 58 -8 61 -27 161 -31 167 -3 4 -6 22 -9 41
-9 69 -70 238 -133 369 -36 74 -69 137 -73 140 -4 3 -14 19 -23 37 -9 17 -22
37 -30 45 -7 7 -24 29 -37 48 -39 56 -41 58 -130 149 -47 47 -98 95 -114 106
-15 11 -34 25 -41 32 -31 30 -190 126 -284 172 -96 47 -313 127 -371 137 -14
3 -36 9 -50 14 -22 8 -147 33 -225 45 -16 3 -45 8 -64 11 -18 3 -57 7 -85 9
-28 3 -76 8 -106 11 -69 9 -656 10 -730 1 -30 -3 -73 -8 -95 -11 -22 -3 -69
-10 -105 -16 -36 -6 -79 -13 -97 -15 -18 -3 -63 -12 -100 -21 -37 -9 -76 -17
-85 -19 -90 -18 -357 -107 -488 -163 -100 -42 -308 -148 -331 -168 -8 -8 -19
-14 -22 -14 -9 0 -95 -61 -182 -129 -95 -75 -336 -318 -393 -396 -4 -5 -30
-41 -59 -80 -50 -69 -143 -205 -143 -210 0 -2 -26 -47 -58 -102 -31 -54 -70
-126 -86 -160 -16 -35 -31 -61 -33 -59 -2 2 -6 14 -8 27 -3 13 -11 58 -20 99
-8 41 -17 84 -19 95 -1 11 -11 47 -20 80 -10 33 -19 67 -21 75 -2 8 -15 47
-30 85 -14 39 -27 75 -28 80 -9 33 -94 192 -139 260 -89 131 -220 268 -353
367 -28 21 -54 41 -60 46 -5 4 -17 11 -25 15 -8 4 -33 18 -55 32 -41 25 -215
111 -250 125 -11 4 -38 15 -60 23 -178 69 -463 130 -715 153 -69 6 -617 13
-623 8z"/>
</g>
</svg>
